<svg width="473" height="443" viewBox="0 0 473 443" fill="none" xmlns="http://www.w3.org/2000/svg">
<g clip-path="url(#clip0_2_2)">
<path d="M133.951 13.7982C137.197 12.7308 140.441 11.376 143.675 10.3841C158.53 5.82818 173.517 2.67458 189.011 1.42861C198.266 0.684317 207.336 -0.205134 216.68 0.0421767C227.662 0.383929 240.244 1.26676 251.115 2.93032C273.823 6.54879 295.853 13.5743 316.466 23.7695C329.28 30.2043 341.413 37.9131 352.685 46.7798C356.895 50.0652 361.837 54.7174 365.802 57.6152C361.552 68.2211 357.11 76.4999 357.779 88.5164C357.829 89.4245 357.892 91.8885 357.314 92.4908C356.87 92.2079 356.976 92.3329 356.663 91.9367C351.272 86.6997 346.292 81.3475 340.646 76.3178C324.197 61.6595 308.599 53.1206 288.765 44.3886C281.176 41.7145 273.876 38.9647 265.961 36.8666C249.203 32.4253 231.484 30.475 214.174 29.9735C210.319 29.8616 204.139 30.5129 200.257 30.8364C193.603 31.3909 186.003 31.9953 179.443 33.0948C174.678 33.893 169.114 35.2438 164.279 36.31C159.322 37.4032 153.026 39.6657 148.144 41.097C146.293 41.6395 135.209 46.2982 134.732 46.353C126.835 49.9228 118.958 53.8399 111.592 58.4211C74.8796 81.2561 46.657 117.814 35.5918 159.786C35.3132 160.843 35.0002 161.925 34.6461 162.959C31.3548 178.261 29.0779 193.944 29.7473 209.652C29.929 213.921 30.2619 218.217 30.502 222.488C33.345 249.038 42.2168 274.587 56.4394 297.181C63.0664 307.565 70.5954 313.732 73.4596 325.646C73.8521 329.21 74.2211 332.296 74.0495 335.902C73.3208 351.21 70.3822 366.254 69.1457 381.504C68.9569 383.83 66.4886 398.646 67.0853 399.588C67.8597 399.528 68.0179 399.487 68.7451 399.308C71.9649 397.919 75.3362 396.27 78.5533 394.787C93.5657 387.878 108.998 381.547 123.993 374.638C141.692 367.438 146.242 366.461 164.326 373.274C171.045 375.807 183.489 377.398 190.706 378.623C225.387 384.507 259.984 378.393 292.342 365.453C293.419 364.85 294.977 364.198 296.14 363.663C339.126 344.021 372.506 308.035 388.882 263.68C389.914 260.448 391.151 257.195 392.122 253.945C394.775 244.984 396.628 235.805 397.663 226.516C400.3 208.885 399.354 198.357 397.329 181.02C396.958 178.783 396.547 176.518 396.327 174.264L395.921 171.824C394.528 163.399 391.552 155.646 389.361 147.703C394.972 151.846 402.718 154.379 409.237 156.543C410.366 156.747 411.638 157.006 412.761 157.167C414.578 157.313 420.545 157.872 422.175 157.581C422.993 157.801 423.188 157.687 423.609 158.555C424.715 160.83 425.457 164.465 425.807 166.983C430.199 195.107 430.484 223.823 423.788 251.632C423.099 254.493 422.289 259.581 421.173 262.124C416.984 275.13 413.927 283.865 407.698 296.355C387.63 335.811 355.603 367.903 316.198 388.042C314.217 389.052 312.223 390.037 310.214 390.997C277.251 408.043 233.378 413.637 196.854 410.475C184.098 409.371 169.574 406.124 157.276 402.747C151.477 401.156 146.712 398.106 140.545 400.78C118.09 410.278 95.1919 420.995 72.8294 430.91L57.3983 437.814C52.2683 440.127 44.2276 444.713 38.693 442.334C36.4215 441.355 34.6322 439.511 33.7195 437.21C32.3624 433.733 34.1395 422.19 34.8871 418.361L40.5888 366.731C41.5151 358.617 44.9664 338.798 43.5474 331.551C42.1072 327.975 38.0837 323.672 35.8003 320.318C33.1236 316.389 30.4356 312.459 27.9641 308.388C12.9154 283.08 3.61843 254.763 0.732859 225.455C0.0708259 218.327 0.248305 212.245 0.0665454 205.263C-0.384319 187.946 1.44919 171.157 5.77083 154.376C6.66101 150.92 7.53209 147.029 8.84514 143.663C11.5953 134.888 14.9574 126.317 18.9066 118.013C41.0229 70.5262 84.8817 31.6316 133.951 13.7982Z" fill="white"/>
<path d="M8.84514 143.663C11.5953 134.888 14.9574 126.317 18.9066 118.013C41.0229 70.5264 84.8817 31.6318 133.951 13.7983C133.906 13.889 133.454 14.8008 133.454 14.8008C128.367 17.2467 123.102 19.3205 117.998 21.7582C86.3282 36.7887 58.9094 59.4914 38.2281 87.8072C27.9754 102.045 20.2834 117.228 13.5975 133.415C12.9463 134.991 10.1785 143.107 8.99466 143.63C8.94802 143.651 8.89499 143.652 8.84514 143.663Z" fill="white"/>
<path d="M310.214 390.997C310.386 390.487 310.595 389.871 311.062 389.583C314.212 387.704 317.486 386.02 320.699 384.249C359.427 362.931 391.572 329.255 409.823 288.807C412.09 283.812 414.187 278.741 416.113 273.605C417.289 270.471 418.331 266.834 419.775 263.91L419.735 264.112C420.255 263.107 420.318 262.536 421.173 262.125C416.984 275.13 413.927 283.865 407.698 296.355C387.63 335.811 355.603 367.903 316.198 388.042C314.217 389.053 312.223 390.037 310.214 390.997Z" fill="white"/>
<path d="M34.6461 162.959C34.6587 156.623 36.3712 152.145 38.5118 146.159C45.1885 127.821 54.8995 110.737 67.2383 95.6202C82.2252 77.3792 100.711 62.3258 121.605 51.3471C124.125 50.0049 130.871 46.4124 133.356 46.1611L133.086 46.3286L134.732 46.3528C126.835 49.9226 118.958 53.8396 111.592 58.4208C74.8796 81.2559 46.657 117.814 35.5918 159.785C35.3132 160.843 35.0002 161.925 34.6461 162.959Z" fill="white"/>
<path d="M292.342 365.453C293.419 364.85 294.977 364.198 296.14 363.663C339.126 344.021 372.506 308.035 388.882 263.68C390.111 270.011 375.462 294.913 371.421 300.909C355.376 325.106 333.667 345.016 308.18 358.91C304.361 361.014 300.285 362.865 296.345 364.751C295.148 365.325 293.589 366.037 292.342 365.453Z" fill="white"/>
<path d="M34.8871 418.361C34.9144 420.637 35.1039 422.74 35.0302 425.026C34.9045 428.932 33.3576 434.056 35.2811 437.667C36.957 440.344 40.2314 442.006 43.3309 441.622C46.3069 441.253 48.6736 440.183 51.3538 439.056C55.6608 437.248 59.8801 435.309 64.1454 433.437L116.242 410.096L128.89 404.51C131.968 403.149 135.038 401.742 138.247 400.691C139.147 400.396 139.63 400.53 140.545 400.78C118.09 410.278 95.1919 420.995 72.8294 430.91L57.3983 437.814C52.2683 440.127 44.2276 444.713 38.693 442.334C36.4215 441.354 34.6322 439.511 33.7195 437.21C32.3624 433.733 34.1395 422.19 34.8871 418.361Z" fill="white"/>
<path d="M30.502 222.488C33.345 249.038 42.2168 274.587 56.4394 297.181C63.0664 307.565 70.5954 313.732 73.4596 325.646C73.2254 325.465 72.2772 324.712 72.1843 324.523C70.6421 321.391 69.6393 317.545 67.5472 314.717C63.8738 309.749 60.028 304.989 56.6398 299.797C42.9858 278.829 33.9729 255.18 30.2066 230.439C29.8334 228.048 29.0984 224.413 30.502 222.488Z" fill="white"/>
<path d="M0.732864 225.456C3.24822 229.187 3.67691 240.759 4.8333 245.842C10.4997 270.749 19.5367 294.408 34.0232 315.566C35.9005 318.308 43.9207 328.667 44.4558 331.086L44.3253 331.647C43.8329 331.66 43.9808 331.713 43.5474 331.551C42.1072 327.975 38.0837 323.672 35.8003 320.318C33.1236 316.389 30.4356 312.459 27.9641 308.389C12.9154 283.08 3.61843 254.763 0.732864 225.456Z" fill="white"/>
<path d="M288.765 44.3887C292.811 44.4026 296.898 46.6314 300.59 48.3726C317.92 56.565 333.73 67.6454 347.347 81.1398C348.844 82.6482 353.791 87.817 355.431 88.6769L355.926 88.5817L356.41 87.2614L356.653 87.6127C356.451 88.2382 356.183 88.7052 356.201 89.3574C355.53 89.3915 354.414 88.5478 353.844 88.1337C354.48 89.4292 356.59 90.4504 356.663 91.9368C351.272 86.6998 346.292 81.3476 340.646 76.3179C324.197 61.6596 308.599 53.1208 288.765 44.3887Z" fill="white"/>
<path d="M123.993 374.638L124.119 375.395C122.754 376.65 107.212 383.277 104.598 384.418L82.7842 394.055C79.9627 395.302 72.0003 399.532 69.5111 399.669L68.7451 399.308C71.9649 397.919 75.3362 396.27 78.5533 394.787C93.5657 387.878 108.998 381.547 123.993 374.638Z" fill="white"/>
<path d="M389.361 147.703C394.972 151.846 402.718 154.379 409.237 156.543C410.366 156.747 411.638 157.006 412.761 157.167C409.985 159.822 395.333 152.496 391.981 151.09C392.978 154.94 398.124 171.363 396.327 174.264L395.921 171.824C394.528 163.399 391.552 155.646 389.361 147.703Z" fill="white"/>
<path d="M397.329 181.02C401.103 184.27 400.499 214.803 398.937 220.988C398.579 222.407 398.68 225.248 398.278 226.366L397.91 226.624L397.663 226.516C400.3 208.885 399.354 198.357 397.329 181.02Z" fill="white"/>
<path d="M422.175 157.581C422.993 157.801 423.188 157.687 423.609 158.555C424.715 160.83 425.457 164.465 425.807 166.983C425.381 167.178 425.527 167.105 424.985 167.06C424.086 166.067 422.71 159.506 422.175 157.581Z" fill="white"/>
<path d="M228.204 110.365C229.254 110.094 229.047 109.973 229.878 110.288C230.835 111.809 229.635 116.035 229.2 117.914C229.139 118.179 229.072 118.442 229 118.704C228.073 126.357 226.868 131.159 225.505 138.474L220.484 166.574C220.033 169.087 217.449 178.461 218.488 180.075C221.098 180.783 230.739 179.947 233.231 180.04C239.506 180.274 293.573 179.572 296.055 180.508C296.118 181.546 296.249 181.776 295.388 182.691C291.145 187.211 286.872 191.734 282.632 196.253L247.098 233.694L220.3 261.93C215.032 267.582 209.675 273.152 204.232 278.638C202.203 280.716 200.238 282.855 198.217 284.938C197.5 285.678 196.889 285.893 195.887 285.676C194.989 283.961 197.483 273.759 197.93 271.079C199.38 261.493 201.015 251.937 202.832 242.416C204.28 234.784 205.889 227.573 206.486 219.736C202.792 219.432 199.054 219.759 195.347 219.83C189.948 219.933 184.547 220.002 179.147 220.063C161.266 220.342 143.38 220.19 125.506 219.609C124.847 219.246 124.867 219.296 124.509 218.642C124.527 216.203 132.508 209.232 134.526 207.125L155.934 184.876L192.825 146.512C204.376 134.715 215.686 123.96 226.954 111.654L228.204 110.365Z" fill="white"/>
<path d="M197.45 284.34C200.053 280.776 205.983 275.097 209.305 271.66L233.552 246.861C235.558 244.829 237.215 242.458 239.158 240.37C254.139 224.275 269.351 208.325 284.729 192.608C287.074 190.21 293.669 181.639 296.054 180.508C296.118 181.546 296.249 181.776 295.388 182.691C291.145 187.211 286.872 191.734 282.632 196.253L247.098 233.694L220.3 261.93C215.032 267.582 209.675 273.152 204.231 278.637C202.203 280.716 200.238 282.855 198.217 284.938C197.5 285.678 196.889 285.893 195.887 285.676C194.989 283.961 197.483 273.759 197.93 271.079C198.535 274.165 197.482 280.617 197.45 284.34Z" fill="white"/>
<path d="M226.954 111.654C227.15 112.205 227.511 112.856 227.076 113.387C225.899 114.821 224.228 116.524 222.961 117.857C217.094 123.93 211.153 129.932 205.14 135.86C200.973 140.032 196.632 144.294 192.559 148.537C189.935 151.271 187.628 154.301 184.879 157.115L158.187 184.587C150.622 192.312 142.709 199.651 135.669 207.861C132.692 211.333 127.179 215.437 125.506 219.609C124.847 219.246 124.867 219.296 124.509 218.642C124.527 216.203 132.508 209.232 134.526 207.125L155.934 184.876L192.825 146.512C204.376 134.715 215.686 123.96 226.954 111.654Z" fill="white"/>
<path d="M228.204 110.365C229.254 110.094 229.047 109.973 229.878 110.288C230.835 111.809 229.635 116.035 229.2 117.914C229.139 118.179 229.072 118.442 229 118.704C228.843 116.548 229.073 112.003 228.204 110.365Z" fill="white"/>
<path d="M424.947 43.0368C450.734 42.3941 472.196 62.7144 472.978 88.5117C473.758 114.309 453.564 135.892 427.784 136.811C401.809 137.738 380.038 117.346 379.25 91.3516C378.465 65.3579 398.962 43.6846 424.947 43.0368Z" fill="#FE3F42"/>
</g>
<defs>
<clipPath id="clip0_2_2">
<rect width="473" height="443" fill="white"/>
</clipPath>
</defs>
</svg>
